<?xml version="1.0" encoding="utf-8"?>
<!-- Generator: Adobe Illustrator 21.0.2, SVG Export Plug-In . SVG Version: 6.00 Build 0)  -->
<svg version="1.1" id="Layer_1" xmlns="http://www.w3.org/2000/svg" xmlns:xlink="http://www.w3.org/1999/xlink" x="0px" y="0px"
	 viewBox="0 0 259.9 88.4" style="enable-background:new 0 0 259.9 88.4;" xml:space="preserve">
<style type="text/css">
	.st0{fill:#FFFFFF;}
</style>
<g>
	<path class="st0" d="M12.4,67H18v1.7h-3.8v1.5h3.6v1.7h-3.6v1.7h4v1.7h-5.8V67z"/>
	<path class="st0" d="M19.7,67h2.7c0.7,0,1.3,0.1,1.9,0.2s1.1,0.4,1.6,0.7s0.8,0.8,1.1,1.3s0.4,1.2,0.4,1.9c0,0.7-0.1,1.3-0.4,1.8
		s-0.6,0.9-1,1.3c-0.4,0.3-0.9,0.6-1.5,0.8s-1.2,0.3-1.8,0.3h-3V67z M21.6,73.6h0.9c0.4,0,0.8,0,1.2-0.1c0.4-0.1,0.7-0.2,0.9-0.4
		s0.5-0.5,0.6-0.8c0.2-0.3,0.2-0.7,0.2-1.2c0-0.4-0.1-0.8-0.2-1.1c-0.2-0.3-0.4-0.5-0.6-0.7s-0.6-0.3-0.9-0.4
		c-0.3-0.1-0.7-0.1-1.1-0.1h-1.1V73.6z"/>
	<path class="st0" d="M35.6,72.1c0,0.5-0.1,0.9-0.2,1.4s-0.4,0.8-0.7,1.1s-0.7,0.5-1.1,0.7s-0.9,0.3-1.5,0.3c-0.6,0-1.1-0.1-1.5-0.3
		c-0.4-0.2-0.8-0.4-1.1-0.7s-0.5-0.7-0.7-1.1c-0.1-0.4-0.2-0.9-0.2-1.4V67h1.8v5c0,0.3,0,0.5,0.1,0.7c0.1,0.2,0.2,0.4,0.3,0.6
		c0.1,0.2,0.3,0.3,0.5,0.4s0.4,0.1,0.7,0.1c0.2,0,0.5,0,0.7-0.1c0.2-0.1,0.4-0.2,0.5-0.4s0.3-0.3,0.3-0.6s0.1-0.5,0.1-0.7v-5h1.8
		V72.1z"/>
	<path class="st0" d="M42.7,69.1c-0.2-0.2-0.4-0.4-0.7-0.5s-0.6-0.2-0.9-0.2c-0.3,0-0.7,0.1-1,0.2s-0.5,0.3-0.8,0.6
		c-0.2,0.2-0.4,0.5-0.5,0.8s-0.2,0.7-0.2,1.1c0,0.4,0.1,0.7,0.2,1.1c0.1,0.3,0.3,0.6,0.5,0.8c0.2,0.2,0.5,0.4,0.7,0.6
		s0.6,0.2,0.9,0.2c0.4,0,0.7-0.1,1-0.2s0.5-0.4,0.7-0.7l1.5,1.1c-0.4,0.5-0.8,0.9-1.3,1.1c-0.5,0.2-1.1,0.4-1.7,0.4
		c-0.6,0-1.2-0.1-1.8-0.3c-0.5-0.2-1-0.5-1.4-0.9s-0.7-0.8-0.9-1.4c-0.2-0.5-0.3-1.1-0.3-1.8s0.1-1.3,0.3-1.8c0.2-0.5,0.5-1,0.9-1.4
		s0.9-0.7,1.4-0.9c0.5-0.2,1.1-0.3,1.8-0.3c0.2,0,0.5,0,0.7,0.1s0.5,0.1,0.8,0.2c0.2,0.1,0.5,0.2,0.7,0.4c0.2,0.2,0.4,0.3,0.6,0.6
		L42.7,69.1z"/>
	<path class="st0" d="M48.1,67h1.5l3.6,8.3h-2.1l-0.7-1.8h-3.2l-0.7,1.8h-2L48.1,67z M48.8,69.4l-1,2.6h2L48.8,69.4z"/>
	<path class="st0" d="M54.6,68.6h-2.4V67h6.6v1.6h-2.4v6.7h-1.8V68.6z"/>
	<path class="st0" d="M59.6,67h1.8v8.3h-1.8V67z"/>
	<path class="st0" d="M62.7,71.1c0-0.7,0.1-1.3,0.3-1.8c0.2-0.5,0.5-1,0.9-1.4s0.9-0.7,1.4-0.9c0.5-0.2,1.1-0.3,1.8-0.3
		c0.6,0,1.2,0.1,1.8,0.3c0.5,0.2,1,0.5,1.4,0.9c0.4,0.4,0.7,0.8,0.9,1.4s0.3,1.1,0.3,1.8s-0.1,1.3-0.3,1.8c-0.2,0.5-0.5,1-0.9,1.4
		C70,74.7,69.5,75,69,75.2c-0.5,0.2-1.1,0.3-1.8,0.3c-0.6,0-1.2-0.1-1.8-0.3c-0.5-0.2-1-0.5-1.4-0.9s-0.7-0.8-0.9-1.4
		C62.8,72.4,62.7,71.8,62.7,71.1z M64.6,71.1c0,0.4,0.1,0.7,0.2,1.1c0.1,0.3,0.3,0.6,0.5,0.8c0.2,0.2,0.5,0.4,0.8,0.6
		s0.7,0.2,1.1,0.2c0.4,0,0.7-0.1,1.1-0.2s0.6-0.3,0.8-0.6c0.2-0.2,0.4-0.5,0.5-0.8c0.1-0.3,0.2-0.7,0.2-1.1c0-0.4-0.1-0.7-0.2-1.1
		s-0.3-0.6-0.5-0.8c-0.2-0.2-0.5-0.4-0.8-0.6s-0.7-0.2-1.1-0.2c-0.4,0-0.7,0.1-1.1,0.2s-0.6,0.3-0.8,0.6c-0.2,0.2-0.4,0.5-0.5,0.8
		S64.6,70.7,64.6,71.1z"/>
	<path class="st0" d="M72.9,67h2.5l3.5,5.8h0V67h1.8v8.3h-2.4l-3.6-5.9h0v5.9h-1.8V67z"/>
	<path class="st0" d="M85.2,67h1.5l3.6,8.3h-2.1l-0.7-1.8h-3.2l-0.7,1.8h-2L85.2,67z M85.9,69.4l-1,2.6h2L85.9,69.4z"/>
	<path class="st0" d="M91.2,67H93v6.6h3.4v1.7h-5.2V67z"/>
	<path class="st0" d="M100.9,67h3.2c0.4,0,0.8,0,1.2,0.1c0.4,0.1,0.7,0.2,1,0.4s0.5,0.4,0.7,0.8s0.3,0.7,0.3,1.2
		c0,0.6-0.2,1.1-0.5,1.5c-0.3,0.4-0.8,0.7-1.3,0.8l2.1,3.5h-2.2l-1.7-3.3h-0.9v3.3h-1.8V67z M102.7,70.4h1.1c0.2,0,0.3,0,0.5,0
		s0.3,0,0.5-0.1c0.1-0.1,0.3-0.2,0.4-0.3c0.1-0.1,0.1-0.3,0.1-0.5c0-0.2,0-0.4-0.1-0.5c-0.1-0.1-0.2-0.2-0.3-0.3
		c-0.1-0.1-0.3-0.1-0.5-0.1s-0.3,0-0.5,0h-1.2V70.4z"/>
	<path class="st0" d="M108.6,67h5.6v1.7h-3.8v1.5h3.6v1.7h-3.6v1.7h4v1.7h-5.8V67z"/>
	<path class="st0" d="M120,69c-0.1-0.2-0.4-0.3-0.6-0.4s-0.5-0.1-0.7-0.1c-0.1,0-0.3,0-0.4,0s-0.3,0.1-0.4,0.1s-0.2,0.2-0.3,0.3
		s-0.1,0.2-0.1,0.4c0,0.2,0.1,0.4,0.3,0.6s0.4,0.2,0.7,0.3s0.6,0.2,0.9,0.3s0.6,0.2,0.9,0.4c0.3,0.2,0.5,0.4,0.7,0.7
		s0.3,0.7,0.3,1.2c0,0.5-0.1,0.9-0.3,1.2s-0.4,0.6-0.7,0.9s-0.6,0.4-1,0.5s-0.8,0.2-1.2,0.2c-0.5,0-1-0.1-1.5-0.2
		c-0.5-0.2-0.9-0.4-1.3-0.8l1.3-1.4c0.2,0.2,0.4,0.4,0.7,0.6s0.6,0.2,0.9,0.2c0.1,0,0.3,0,0.5-0.1s0.3-0.1,0.4-0.2s0.2-0.2,0.3-0.3
		s0.1-0.2,0.1-0.4c0-0.2-0.1-0.4-0.3-0.6c-0.2-0.1-0.4-0.3-0.7-0.4s-0.6-0.2-0.9-0.3s-0.6-0.2-0.9-0.4s-0.5-0.4-0.7-0.7
		c-0.2-0.3-0.3-0.7-0.3-1.1c0-0.4,0.1-0.8,0.3-1.2c0.2-0.3,0.4-0.6,0.7-0.8s0.6-0.4,1-0.5s0.8-0.2,1.2-0.2c0.5,0,0.9,0.1,1.4,0.2
		c0.4,0.1,0.8,0.4,1.2,0.7L120,69z"/>
	<path class="st0" d="M122.2,71.1c0-0.7,0.1-1.3,0.3-1.8s0.5-1,0.9-1.4s0.9-0.7,1.4-0.9c0.5-0.2,1.1-0.3,1.8-0.3s1.2,0.1,1.8,0.3
		c0.5,0.2,1,0.5,1.4,0.9s0.7,0.8,0.9,1.4s0.3,1.1,0.3,1.8s-0.1,1.3-0.3,1.8c-0.2,0.5-0.5,1-0.9,1.4s-0.9,0.7-1.4,0.9
		c-0.5,0.2-1.1,0.3-1.8,0.3s-1.2-0.1-1.8-0.3c-0.5-0.2-1-0.5-1.4-0.9s-0.7-0.8-0.9-1.4C122.3,72.4,122.2,71.8,122.2,71.1z
		 M124.1,71.1c0,0.4,0.1,0.7,0.2,1.1c0.1,0.3,0.3,0.6,0.5,0.8c0.2,0.2,0.5,0.4,0.8,0.6s0.7,0.2,1.1,0.2s0.7-0.1,1.1-0.2
		s0.6-0.3,0.8-0.6c0.2-0.2,0.4-0.5,0.5-0.8c0.1-0.3,0.2-0.7,0.2-1.1c0-0.4-0.1-0.7-0.2-1.1s-0.3-0.6-0.5-0.8
		c-0.2-0.2-0.5-0.4-0.8-0.6s-0.7-0.2-1.1-0.2s-0.7,0.1-1.1,0.2s-0.6,0.3-0.8,0.6c-0.2,0.2-0.4,0.5-0.5,0.8S124.1,70.7,124.1,71.1z"
		/>
	<path class="st0" d="M139.4,72.1c0,0.5-0.1,0.9-0.2,1.4s-0.4,0.8-0.7,1.1s-0.7,0.5-1.1,0.7s-0.9,0.3-1.5,0.3
		c-0.6,0-1.1-0.1-1.5-0.3s-0.8-0.4-1.1-0.7s-0.5-0.7-0.7-1.1c-0.1-0.4-0.2-0.9-0.2-1.4V67h1.8v5c0,0.3,0,0.5,0.1,0.7
		s0.2,0.4,0.3,0.6s0.3,0.3,0.5,0.4s0.4,0.1,0.7,0.1s0.5,0,0.7-0.1c0.2-0.1,0.4-0.2,0.5-0.4s0.3-0.3,0.3-0.6s0.1-0.5,0.1-0.7v-5h1.8
		V72.1z"/>
	<path class="st0" d="M141,67h3.2c0.4,0,0.8,0,1.2,0.1s0.7,0.2,1,0.4s0.5,0.4,0.7,0.8c0.2,0.3,0.3,0.7,0.3,1.2
		c0,0.6-0.2,1.1-0.5,1.5c-0.3,0.4-0.8,0.7-1.3,0.8l2.1,3.5h-2.2l-1.7-3.3h-0.9v3.3H141V67z M142.9,70.4h1.1c0.2,0,0.3,0,0.5,0
		s0.3,0,0.5-0.1s0.3-0.2,0.4-0.3s0.1-0.3,0.1-0.5c0-0.2,0-0.4-0.1-0.5s-0.2-0.2-0.3-0.3s-0.3-0.1-0.5-0.1s-0.3,0-0.5,0h-1.2V70.4z"
		/>
	<path class="st0" d="M154.1,69.1c-0.2-0.2-0.4-0.4-0.7-0.5s-0.6-0.2-0.9-0.2s-0.7,0.1-1,0.2s-0.5,0.3-0.8,0.6
		c-0.2,0.2-0.4,0.5-0.5,0.8s-0.2,0.7-0.2,1.1c0,0.4,0.1,0.7,0.2,1.1c0.1,0.3,0.3,0.6,0.5,0.8c0.2,0.2,0.5,0.4,0.7,0.6
		s0.6,0.2,0.9,0.2c0.4,0,0.7-0.1,1-0.2s0.5-0.4,0.7-0.7l1.5,1.1c-0.4,0.5-0.8,0.9-1.3,1.1c-0.5,0.2-1.1,0.4-1.7,0.4
		c-0.6,0-1.2-0.1-1.8-0.3c-0.5-0.2-1-0.5-1.4-0.9s-0.7-0.8-0.9-1.4c-0.2-0.5-0.3-1.1-0.3-1.8s0.1-1.3,0.3-1.8s0.5-1,0.9-1.4
		s0.9-0.7,1.4-0.9c0.5-0.2,1.1-0.3,1.8-0.3c0.2,0,0.5,0,0.7,0.1s0.5,0.1,0.8,0.2c0.2,0.1,0.5,0.2,0.7,0.4c0.2,0.2,0.4,0.3,0.6,0.6
		L154.1,69.1z"/>
	<path class="st0" d="M156.7,67h5.6v1.7h-3.8v1.5h3.6v1.7h-3.6v1.7h4v1.7h-5.8V67z"/>
	<path class="st0" d="M171.6,69c-0.1-0.2-0.3-0.3-0.6-0.4s-0.5-0.1-0.7-0.1c-0.1,0-0.3,0-0.4,0s-0.3,0.1-0.4,0.1
		c-0.1,0.1-0.2,0.2-0.3,0.3s-0.1,0.2-0.1,0.4c0,0.2,0.1,0.4,0.3,0.6c0.2,0.1,0.4,0.2,0.7,0.3c0.3,0.1,0.6,0.2,0.9,0.3
		s0.6,0.2,0.9,0.4s0.5,0.4,0.7,0.7s0.3,0.7,0.3,1.2c0,0.5-0.1,0.9-0.3,1.2s-0.4,0.6-0.7,0.9s-0.6,0.4-1,0.5s-0.8,0.2-1.2,0.2
		c-0.5,0-1-0.1-1.5-0.2s-0.9-0.4-1.3-0.8l1.3-1.4c0.2,0.2,0.4,0.4,0.7,0.6s0.6,0.2,0.9,0.2c0.1,0,0.3,0,0.5-0.1s0.3-0.1,0.4-0.2
		s0.2-0.2,0.3-0.3s0.1-0.2,0.1-0.4c0-0.2-0.1-0.4-0.3-0.6c-0.2-0.1-0.4-0.3-0.7-0.4s-0.6-0.2-0.9-0.3s-0.6-0.2-0.9-0.4
		s-0.5-0.4-0.7-0.7c-0.2-0.3-0.3-0.7-0.3-1.1c0-0.4,0.1-0.8,0.3-1.2s0.4-0.6,0.7-0.8s0.6-0.4,1-0.5s0.8-0.2,1.2-0.2
		c0.5,0,0.9,0.1,1.4,0.2s0.8,0.4,1.2,0.7L171.6,69z"/>
	<path class="st0" d="M176.3,71.7l-3.1-4.8h2.3l1.8,3.1l1.9-3.1h2.2l-3.1,4.8v3.5h-1.8V71.7z"/>
	<path class="st0" d="M186,69c-0.1-0.2-0.4-0.3-0.6-0.4s-0.5-0.1-0.7-0.1c-0.1,0-0.3,0-0.4,0s-0.3,0.1-0.4,0.1s-0.2,0.2-0.3,0.3
		s-0.1,0.2-0.1,0.4c0,0.2,0.1,0.4,0.3,0.6s0.4,0.2,0.7,0.3s0.6,0.2,0.9,0.3s0.6,0.2,0.9,0.4c0.3,0.2,0.5,0.4,0.7,0.7
		s0.3,0.7,0.3,1.2c0,0.5-0.1,0.9-0.3,1.2s-0.4,0.6-0.7,0.9s-0.6,0.4-1,0.5s-0.8,0.2-1.2,0.2c-0.5,0-1-0.1-1.5-0.2
		c-0.5-0.2-0.9-0.4-1.3-0.8l1.3-1.4c0.2,0.2,0.4,0.4,0.7,0.6s0.6,0.2,0.9,0.2c0.1,0,0.3,0,0.5-0.1s0.3-0.1,0.4-0.2s0.2-0.2,0.3-0.3
		s0.1-0.2,0.1-0.4c0-0.2-0.1-0.4-0.3-0.6c-0.2-0.1-0.4-0.3-0.7-0.4s-0.6-0.2-0.9-0.3s-0.6-0.2-0.9-0.4s-0.5-0.4-0.7-0.7
		c-0.2-0.3-0.3-0.7-0.3-1.1c0-0.4,0.1-0.8,0.3-1.2c0.2-0.3,0.4-0.6,0.7-0.8s0.6-0.4,1-0.5s0.8-0.2,1.2-0.2c0.5,0,0.9,0.1,1.4,0.2
		c0.4,0.1,0.8,0.4,1.2,0.7L186,69z"/>
	<path class="st0" d="M190.2,68.6h-2.4V67h6.6v1.6H192v6.7h-1.8V68.6z"/>
	<path class="st0" d="M195.4,67h5.6v1.7h-3.8v1.5h3.6v1.7h-3.6v1.7h4v1.7h-5.8V67z"/>
	<path class="st0" d="M202.7,67h2.8l1.9,5.4h0l1.9-5.4h2.8v8.3h-1.8v-6.4h0l-2.2,6.4h-1.4l-2.1-6.4h0v6.4h-1.8V67z"/>
	<path class="st0" d="M217.9,69c-0.1-0.2-0.4-0.3-0.6-0.4s-0.5-0.1-0.7-0.1c-0.1,0-0.3,0-0.4,0s-0.3,0.1-0.4,0.1s-0.2,0.2-0.3,0.3
		s-0.1,0.2-0.1,0.4c0,0.2,0.1,0.4,0.3,0.6s0.4,0.2,0.7,0.3s0.6,0.2,0.9,0.3s0.6,0.2,0.9,0.4c0.3,0.2,0.5,0.4,0.7,0.7
		s0.3,0.7,0.3,1.2c0,0.5-0.1,0.9-0.3,1.2s-0.4,0.6-0.7,0.9s-0.6,0.4-1,0.5s-0.8,0.2-1.2,0.2c-0.5,0-1-0.1-1.5-0.2
		c-0.5-0.2-0.9-0.4-1.3-0.8l1.3-1.4c0.2,0.2,0.4,0.4,0.7,0.6s0.6,0.2,0.9,0.2c0.1,0,0.3,0,0.5-0.1s0.3-0.1,0.4-0.2s0.2-0.2,0.3-0.3
		s0.1-0.2,0.1-0.4c0-0.2-0.1-0.4-0.3-0.6c-0.2-0.1-0.4-0.3-0.7-0.4s-0.6-0.2-0.9-0.3s-0.6-0.2-0.9-0.4s-0.5-0.4-0.7-0.7
		c-0.2-0.3-0.3-0.7-0.3-1.1c0-0.4,0.1-0.8,0.3-1.2c0.2-0.3,0.4-0.6,0.7-0.8s0.6-0.4,1-0.5s0.8-0.2,1.2-0.2c0.5,0,0.9,0.1,1.4,0.2
		c0.4,0.1,0.8,0.4,1.2,0.7L217.9,69z"/>
	<path class="st0" d="M220.7,73.4h1.7l-1.1,3.3h-1.5L220.7,73.4z"/>
	<path class="st0" d="M227.4,67h1.8v8.3h-1.8V67z"/>
	<path class="st0" d="M230.9,67h2.5l3.5,5.8h0V67h1.8v8.3h-2.4l-3.6-5.9h0v5.9h-1.8V67z"/>
	<path class="st0" d="M245.9,69.1c-0.2-0.2-0.4-0.4-0.7-0.5s-0.6-0.2-0.9-0.2c-0.3,0-0.7,0.1-1,0.2s-0.5,0.3-0.8,0.6
		s-0.4,0.5-0.5,0.8s-0.2,0.7-0.2,1.1c0,0.4,0.1,0.7,0.2,1.1c0.1,0.3,0.3,0.6,0.5,0.8s0.5,0.4,0.7,0.6s0.6,0.2,0.9,0.2
		c0.4,0,0.7-0.1,1-0.2s0.5-0.4,0.7-0.7l1.5,1.1c-0.4,0.5-0.8,0.9-1.3,1.1s-1.1,0.4-1.7,0.4c-0.6,0-1.2-0.1-1.8-0.3s-1-0.5-1.4-0.9
		s-0.7-0.8-0.9-1.4c-0.2-0.5-0.3-1.1-0.3-1.8s0.1-1.3,0.3-1.8c0.2-0.5,0.5-1,0.9-1.4s0.9-0.7,1.4-0.9s1.1-0.3,1.8-0.3
		c0.2,0,0.5,0,0.7,0.1s0.5,0.1,0.8,0.2s0.5,0.2,0.7,0.4s0.4,0.3,0.6,0.6L245.9,69.1z"/>
	<path class="st0" d="M248.3,74.2c0-0.1,0-0.3,0.1-0.4s0.1-0.2,0.2-0.3c0.1-0.1,0.2-0.2,0.3-0.2c0.1-0.1,0.3-0.1,0.4-0.1
		s0.3,0,0.4,0.1s0.2,0.1,0.3,0.2s0.2,0.2,0.2,0.3s0.1,0.3,0.1,0.4s0,0.3-0.1,0.4s-0.1,0.2-0.2,0.3s-0.2,0.2-0.3,0.2
		s-0.3,0.1-0.4,0.1s-0.3,0-0.4-0.1c-0.1-0.1-0.2-0.1-0.3-0.2c-0.1-0.1-0.2-0.2-0.2-0.3S248.3,74.4,248.3,74.2z"/>
</g>
<g>
	<g>
		<path class="st0" d="M130.5,10.2c-27.2,0-49.3,10.5-49.3,23.4c0,12.9,22.1,23.4,49.3,23.4c27.2,0,49.3-10.5,49.3-23.4
			C179.8,20.7,157.7,10.2,130.5,10.2z M130.5,55.3c-22.7,0-41-9.7-41-21.7c0-12,18.4-21.7,41-21.7c22.7,0,41,9.7,41,21.7
			C171.5,45.6,153.1,55.3,130.5,55.3z"/>
		<g>
			<path class="st0" d="M117.8,28.5h-1.2c-0.3-0.8-0.8-1.6-1.5-2.5c-0.7-0.8-1.4-1.3-2.1-1.5c-0.3-0.1-0.7-0.1-1.3-0.1
				c-0.5,0-1,0-1.3,0h-3.1v8.3h2.2c0.6,0,1.1-0.1,1.5-0.2c0.5-0.1,0.9-0.4,1.2-0.8c0.2-0.2,0.5-0.6,0.7-1.2c0.2-0.6,0.4-1.1,0.5-1.5
				h1.2v9h-1.2c-0.1-0.4-0.2-1-0.5-1.6c-0.2-0.6-0.5-1.1-0.7-1.3c-0.3-0.4-0.7-0.6-1.2-0.8c-0.5-0.1-1-0.2-1.6-0.2h-2.2v6.2
				c0,0.6,0,1.2,0.1,1.5c0.1,0.4,0.3,0.7,0.5,0.9c0.3,0.2,0.6,0.3,1,0.4c0.4,0.1,1,0.1,1.8,0.1c0.4,0,0.8,0,1.3,0
				c0.5,0,0.9,0,1.3-0.1c0.4,0,0.8-0.1,1.2-0.2c0.4-0.1,0.6-0.2,0.8-0.4c0.5-0.5,1-1.3,1.6-2.3c0.6-1,1-1.8,1.2-2.3h1.1l-0.4,6.7
				H98.7v-1.2c0.3,0,0.7-0.1,1.2-0.1c0.5-0.1,0.8-0.1,1-0.2c0.4-0.2,0.6-0.4,0.8-0.6c0.1-0.2,0.2-0.6,0.2-0.9V26.2
				c0-0.4-0.1-0.7-0.2-0.9c-0.1-0.2-0.4-0.5-0.8-0.6c-0.3-0.1-0.6-0.2-1.1-0.3c-0.5-0.1-0.8-0.2-1.1-0.2V23h19.1V28.5z"/>
			<path class="st0" d="M145.5,44.5h-8.3c-1.4-2.2-2.6-3.9-3.6-5.2c-0.9-1.3-2.1-2.8-3.5-4.5h-0.8v6.5c0,0.4,0.1,0.7,0.2,0.9
				c0.1,0.3,0.4,0.5,0.8,0.6c0.2,0.1,0.5,0.2,0.9,0.2c0.4,0.1,0.8,0.1,1.1,0.2v1.2h-11.5v-1.2c0.3,0,0.7-0.1,1.2-0.1
				c0.5-0.1,0.8-0.1,1-0.2c0.4-0.2,0.6-0.4,0.8-0.6c0.1-0.2,0.2-0.6,0.2-0.9V26.2c0-0.4-0.1-0.7-0.2-0.9c-0.1-0.2-0.4-0.5-0.8-0.6
				c-0.3-0.1-0.7-0.2-1.1-0.3c-0.4-0.1-0.8-0.2-1-0.2V23h12.1c2.7,0,4.8,0.4,6.2,1.3c1.4,0.8,2.1,2.1,2.1,3.8c0,1.5-0.4,2.7-1.3,3.6
				c-0.9,0.9-2.2,1.6-4,2.2c0.7,0.9,1.5,1.9,2.4,3.1c0.9,1.2,1.9,2.4,2.9,3.6c0.3,0.4,0.7,0.9,1.3,1.4c0.5,0.6,1,0.9,1.4,1.1
				c0.2,0.1,0.5,0.1,0.9,0.2c0.4,0,0.6,0.1,0.8,0.1V44.5z M135.2,28.5c0-1.4-0.4-2.5-1.2-3.2c-0.8-0.7-1.9-1-3.4-1h-1.2v9h1.2
				c1.5,0,2.6-0.4,3.5-1.2C134.8,31.4,135.2,30.2,135.2,28.5z"/>
			<path class="st0" d="M155.9,45.1c-1.3,0-2.5-0.2-3.7-0.5c-1.1-0.3-2.1-0.7-2.9-1.2l-1,1.1H147l-0.2-7.8h1.3
				c0.3,0.7,0.7,1.5,1.1,2.3c0.5,0.8,1,1.6,1.6,2.2c0.6,0.7,1.3,1.2,2.1,1.7c0.8,0.4,1.7,0.6,2.7,0.6c1.4,0,2.4-0.3,3.2-1
				c0.7-0.7,1.1-1.5,1.1-2.5c0-0.8-0.3-1.5-0.9-2.1c-0.6-0.6-1.6-1.1-2.9-1.5c-0.9-0.3-1.6-0.5-2.3-0.8c-0.7-0.2-1.4-0.5-2-0.7
				c-1.4-0.6-2.5-1.4-3.2-2.5c-0.7-1.1-1.1-2.3-1.1-3.6c0-0.8,0.2-1.6,0.5-2.4c0.4-0.8,0.9-1.5,1.6-2.1c0.7-0.6,1.5-1.1,2.6-1.4
				c1-0.4,2.2-0.5,3.4-0.5c1.2,0,2.3,0.2,3.4,0.5c1,0.3,1.9,0.7,2.5,1l0.9-0.9h1.3l0.1,7.3h-1.3c-0.3-0.8-0.7-1.6-1.1-2.4
				c-0.4-0.8-0.8-1.5-1.3-2.1c-0.5-0.6-1.1-1.1-1.7-1.4c-0.6-0.3-1.4-0.5-2.3-0.5c-1.1,0-2,0.3-2.7,0.9c-0.7,0.6-1,1.4-1,2.3
				c0,0.9,0.3,1.6,0.9,2.1c0.6,0.5,1.5,1,2.8,1.4c0.8,0.3,1.5,0.5,2.3,0.8c0.8,0.3,1.5,0.5,2.1,0.7c1.5,0.6,2.6,1.4,3.4,2.4
				c0.8,1,1.2,2.2,1.2,3.7c0,0.9-0.2,1.8-0.7,2.7c-0.4,0.9-1,1.6-1.8,2.2c-0.8,0.6-1.7,1.1-2.8,1.5S157.3,45.1,155.9,45.1z"/>
		</g>
	</g>
</g>
</svg>
